<?xml version='1.0' encoding='utf-8'?>
<svg xmlns="http://www.w3.org/2000/svg" data-name="Ebene 1" viewBox="0 0 512 512"> <defs> <style>.cls-1 { fill: #f4b77b; } .cls-1, .cls-2, .cls-3, .cls-4, .cls-5, .cls-6, .cls-7, .cls-8, .cls-9, .cls-10, .cls-11, .cls-12, .cls-13, .cls-14, .cls-15, .cls-16, .cls-17, .cls-18, .cls-19, .cls-20, .cls-21, .cls-22, .cls-23, .cls-24 { stroke-width: 0px; } .cls-2 { fill: #5d94a8; } .cls-3 { fill: #74aabe; } .cls-4 { fill: #46b0c6; } .cls-5 { fill: #265c71; } .cls-6 { fill: #73141c; } .cls-7 { fill: #341417; } .cls-8 { fill: #3e778c; } .cls-9 { fill: #0e384a; } .cls-10 { fill: #0c0e18; } .cls-11 { fill: #133651; } .cls-12 { fill: #164561; } .cls-13 { fill: #ccbb90; } .cls-14 { fill: #dbc144; } .cls-15 { fill: #a99a7a; } .cls-16 { fill: #b5303b; } .cls-17 { fill: #8bbec9; } .cls-18 { fill: #8dc9c9; } .cls-19 { fill: #86c6b2; } .cls-20 { fill: #e49487; } .cls-21 { fill: #e4d9bf; } .cls-22 { fill: #ebc27b; } .cls-23 { fill: #e7836f; } .cls-24 { fill: #f1da87; }</style> </defs> <path class="cls-12" d="M423,411.5c.44,7.08.56,14.2,1.5,21.25-4.21,1.64-12,5.92-15.5,6.75-2.54.6-1.9-.01-2,0l-.5-41.25c17.49-15.22,6.86-19.12-.5-36-.47-5.98.62-32.71,0-34.5-.13-.38-.65-.25-1-.25-.32-60.19-1.01-120.32-2-180.5.32-6.18,1.21-43.58.5-45.75-.04-.12-1.63-1.71-1.75-1.75-3.65-1.19-66.87.55-76.75.5.14-5.29.13-10.71,0-16l80.5.25c1.8,55.14,2.53,110.4,5.5,165.5,2.91,53.98,8.64,107.81,12,161.75Z"/> <path class="cls-12" d="M105.5,440c-1.22-.16-1.18-.51-1.25-.5-.4.07-.02,1.08-.75,1-.61-2.92-12.57-5.45-15.5-7.5-.65-.45-1.52-.52-2-1.25,4.94-64.97,10.97-129.95,15-195,2.78-44.89,3.92-89.87,6.5-134.75.24,3.08,1.47,4.5,1.5,4.75,2.72,23.58-3.55,114.72-.5,147.5-1.91,61.88-3.96,123.85-3,185.75Z"/> <path class="cls-10" d="M409,449.5c-.02,1.63.15,3.39,0,5-.22,2.32.21,3.72-1.5,6.5-1.43,2.33-2.97,2.93-5.5,3.5-14.28,3.23-255.26-1.44-292.75.5-.82-.88-2.05-.91-2.25-1-5.06-3.9-2.68-9.16-3-14l305-.5Z"/> <path class="cls-11" d="M105.5,440c19.3,2.48,131.03-.69,166,.5.24.63-.91,1.92-1.25,2-8.01,1.98-142.93.41-165,.5l-1.75,1c-.11-1.15.07-2.34,0-3.5.73.08.35-.93.75-1,.07-.01.03.34,1.25.5Z"/> <path class="cls-11" d="M407,439.5c-.16.02-.34-.02-.5,0l-.5-53.25-1.5.75c.09-.8,0-1.68,0-2.5.31,0,1-1.17,1-1.25.48-18.58-.4-37.18-.5-55.75.35,0,.87-.13,1,.25.62,1.79-.47,28.52,0,34.5,7.36,16.88,17.99,20.78.5,36l.5,41.25Z"/> <path class="cls-10" d="M297,439h.5c.21.34,2.37.99,2.5,1,2.87.16,5.58.47,8.5.5-4.49,1.63-11.82.43-15.75,1.5-.61.17-8.47,6.12-11.75,4v-6c2.18.16,3.2-.94,3.5.5-.97,2.73.1,2.83,2,2.5,3.21-.57,7.44-4.51,10.5-4Z"/> <path class="cls-3" d="M242,73c-.07,2.33,2.58,6.7,4,8.5,10.57,13.38,35.01,10.08,37-8.5h41.75c.51.36.21,9.45.25,11,.13,5.29.14,10.71,0,16-.03,1.29.25,8.14-.25,8.5h-132c-.11-6.58-1.05-18.74-.75-24.5.03-.57,1.51-2.78,1.25-11h48.75Z"/> <path class="cls-2" d="M283,73c-1.99,18.58-26.43,21.88-37,8.5,4.95-.69,9.3,5.63,21,3,4.93-1.11,10.97-5.8,10.5-11.5h5.5Z"/> <path class="cls-12" d="M192,84c-.3,5.76.64,17.92.75,24.5h132c.5-.36.22-7.21.25-8.5,9.88.05,73.1-1.69,76.75-.5.12.04,1.71,1.63,1.75,1.75.71,2.17-.18,39.57-.5,45.75-.25-15.49.54-31.08-1.25-46.5-20.57.28-41.18-.37-61.75,0-20.95.38-9.14-3.48-16.25,20.5-38.42,0-76.83,0-115.25,0-4.79,0-9.76-.41-14.5.5-4.57-5.56-2.73-20.32-4.25-21l-79.25.75c-.78,112.68-3.11,225.32-4.5,338,48.78,2.4,131.01-2.55,175,.75v6c-1.37-.88.25-4.79-.75-5.5-.36-.25-7.38.05-8.75,0-34.97-1.19-146.7,1.98-166-.5-.96-61.9,1.09-123.87,3-185.75-3.05-32.78,3.22-123.92.5-147.5-.03-.25-1.26-1.67-1.5-4.75.34-5.99.37-12.01.75-18h83.75Z"/> <path class="cls-12" d="M323.75,112c1.58,0-.19,7.62-1,8h-129c-.28-1.11-2-4.79-1-5.5h130l1-2.5Z"/> <path class="cls-5" d="M268.5,48c.8,5.24,8.88,23.57,9,25,.47,5.7-5.57,10.39-10.5,11.5-4.2-2.52-19.63-3.31-20.5-9.5,6.79,2.14,13.96,1.63,21,1.25,1.11-.78-2.44-23.56-3.5-26.75.23-.03,4.29-1.38,4.5-1.5Z"/> <path class="cls-8" d="M256.5,49c-2.11,4.36-10.44,22.91-10,26,.87,6.19,16.3,6.98,20.5,9.5-11.7,2.63-16.05-3.69-21-3-1.42-1.8-4.07-6.17-4-8.5.06-2,10-21.19,11-26,.46.34,3.31,1.95,3.5,2Z"/> <path class="cls-3" d="M264,49.5c1.06,3.19,4.61,25.97,3.5,26.75-7.04.38-14.21.89-21-1.25-.44-3.09,7.89-21.64,10-26,1.26.35,6.16.69,7.5.5Z"/> <path class="cls-16" d="M268.5,48c-.21.12-4.27,1.47-4.5,1.5-1.34.19-6.24-.15-7.5-.5-.19-.05-3.04-1.66-3.5-2-9.16-6.77-2.79-22.67,9.75-21.5,11.94,1.12,15.09,17.27,5.75,22.5Z"/> <path class="cls-20" d="m256.75 31.5c5.58-2.85 4.19 8.19 3.5 8.5-6.04 2.71-4.85-7.81-3.5-8.5z"/> <path class="cls-12" d="M409,439.5v2.5c0,2.5.03,5,0,7.5l-305,.5c-.13-1.94-.32-4.05-.5-6l1.75-1c22.07-.09,156.99,1.48,165-.5.34-.08,1.49-1.37,1.25-2,1.37.05,8.39-.25,8.75,0,1,.71-.62,4.62.75,5.5,3.28,2.12,11.14-3.83,11.75-4,3.93-1.07,11.26.13,15.75-1.5,15.86.18,89.74-.05,98-1,.16-.02.34.02.5,0,.1-.01-.54.6,2,0Z"/> <path class="cls-11" d="M352.25,442c1.72-1.11.94,3.45-.25,1.25-.12-.23-.08-1.04.25-1.25Z"/> <path class="cls-21" d="M194,121.5c2.39,2.91,7.72,4.69,11,5.5,3.16.79,6.02,1.27,9.25,1.5,7.46.52,87.82.49,97,0,.32-.02.07,1.31,1,1,.77-.91,2.73-2.11,3.75-2.5,2.74-1.04,5.48-1.95,8-3.5,8.23-5.05,12.99-13.9,16-23,20.57-.37,41.18.28,61.75,0,1.79,15.42,1,31.01,1.25,46.5.99,60.18,1.68,120.31,2,180.5.1,18.57.98,37.17.5,55.75,0,.08-.69,1.24-1,1.25.01-5.89-3.67-18.67-8.75-21.5-5.52-3.08-6.37,1.69-7.25,3-.5.75-2.46,4.03-2.5,4.5-6.79-1.9-4.48,4.06-4.5,4.5-1.68.02-14.89,8.22-15.75,8-1.58-.41-.15-6.4-1-7-2.19-1.54-46.97,1.18-53.5,0l25.75,25.5c-9.17,5.11-18.81,9.57-27.5,15.5-.14.1-1.07-.06-1.75,0-2.49,3.41-22.7,21.94-23.25,23.5-.3-1.44-1.32-.34-3.5-.5-43.99-3.3-126.22,1.65-175-.75,1.39-112.68,3.72-225.32,4.5-338l79.25-.75c1.52.68-.32,15.44,4.25,21Z"/> <path class="cls-17" d="M143.25,227.5h222l.25,2.75-222.25.75v-3.5Z"/> <path class="cls-22" d="M224.25,143.5c48.34-.21,96.66.76,145,.5l.75,2.75-227.75.25v-3c27.33.45,54.67-.38,82-.5Z"/> <path class="cls-18" d="M144.25,302.5c9.36,1.14,66.32-1.4,69.5,0,.98.43.94,3.41.75,3.75-1.65,2.96-59.43-.85-67.75.75-3.23-.74-4.53-.57-2.5-4.5Z"/> <path class="cls-19" d="M217.75,377c9.15,1.45,71.76-1.88,75,0,1.37.79.11,2.66.75,3.75-9.07-1.26-73.14,2.45-76.25.25-.43-.3-.6-3.51.5-4Z"/> <path class="cls-21" d="M266.75,299.5c33.48-.08,67.01,1.1,100.5.5l.25,1.25-135.75,1.25c-6.89-1.82-18.61,1.57-16.5-2.5,17.16.51,34.35-.46,51.5-.5Z"/> <path class="cls-1" d="M215.5,178v-4c49.42-.12,98.83.09,148.25,0,1.5,1.08,1.33,1.99,1.25,3.75-49.82.78-99.67.34-149.5.25Z"/> <path class="cls-20" d="M215.5,174v4c-9.31-.02-69.42,1.46-72.75,0-1.35-.59-.89-3.47.5-4,3.37-1.29,62.9.02,72.25,0Z"/> <path class="cls-23" d="M143.25,379c2.92-2.07,62.9,1.59,71.5,0l.25,3.25-69.25.75c-3.61-.4-3.13-3.55-2.5-4Z"/> <path class="cls-15" d="M208.5,121l115.25.5.25,2c-2.52,1.55-5.26,2.46-8,3.5,0-.31-1.17-.99-1.25-1-5.22-.89-100.76-.81-106,0-.19.03-1.5,1.44-3.75,1-3.28-.81-8.61-2.59-11-5.5,4.74-.91,9.71-.5,14.5-.5Z"/> <path class="cls-13" d="m340 100.5c-3.01 9.1-7.77 17.95-16 23l-0.25-2-115.25-0.5h115.25c7.11-23.98-4.7-20.12 16.25-20.5z"/> <path class="cls-13" d="M316,127c-1.02.39-2.98,1.59-3.75,2.5-.93.31-.68-1.02-1-1-9.18.49-89.54.52-97,0-3.23-.23-6.09-.71-9.25-1.5,2.25.44,3.56-.97,3.75-1,5.24-.81,100.78-.89,106,0,.08.01,1.26.69,1.25,1Z"/> <path class="cls-16" d="M406.5,439.5c-8.26.95-82.14,1.18-98,1-2.92-.03-5.63-.34-8.5-.5,2.49-.18,4.7-1.16,7-2,5.96,3.38,29.17-7.23,37.25-11,6.63-3.09,50.66-27.26,55.5-30.5,1.89-1.26,4.96-3.17,2.75-4,1.33-1.53,1.78-3.52,2-5.5l1.5-.75.5,53.25Z"/> <path class="cls-7" d="M379.5,398c-6.34,3.33-13.06,6.42-19.25,10-4.48,2.59-12.49,8.55-15,10-1.88,1.09-8.53,3.84-11.5,5.5-9.25,5.17-16.54,10.79-26.75,14.5-2.3.84-4.51,1.82-7,2-.13,0-2.29-.66-2.5-1,5.65-3.41,12.07-5.21,18-8,8.61-4.05,16.79-8.74,24.75-14,13.91-4.14,25.41-13.84,38.5-20,1.07-.2.7.97.75,1Z"/> <path class="cls-6" d="M307,438c10.21-3.71,17.5-9.33,26.75-14.5,2.97-1.66,9.62-4.41,11.5-5.5,2.51-1.45,10.52-7.41,15-10,6.19-3.58,12.91-6.67,19.25-10,.46.26,1.71,1.77,2.75,2,6.36,1.42,19.1-6.18,20.25-7.5,2.21.83-.86,2.74-2.75,4-4.84,3.24-48.87,27.41-55.5,30.5-8.08,3.77-31.29,14.38-37.25,11Z"/> <path class="cls-4" d="M381.5,375c-.03.55.9.6.25,1.5-.43.6-11.03,6.47-12.75,7.5-10.46,6.27-21.36,11.58-32,17.5l-25.75-25.5c6.53,1.18,51.31-1.54,53.5,0,.85.6-.58,6.59,1,7,.86.22,14.07-7.98,15.75-8Z"/> <path class="cls-2" d="M310.5,419h-.5c.08-.96-.64-1.12-.5-2,8.69-5.93,18.33-10.39,27.5-15.5,10.64-5.92,21.54-11.23,32-17.5,6.39,3.64-2.19,4.34-3.25,5-3.42,2.13-7.46,5.78-7.5,8.5-3.31-2.08-4.7,1.79-7,3-6.45,3.4-13.11,6.45-19.5,10-2.62,1.46-17.41,11.49-18.5,11.5-1.54.02-1.8-2.35-2.75-3Z"/> <path class="cls-14" d="M309.5,417c-.14.88.58,1.04.5,2-.32,3.97-20.18,19.18-23.5,24-1.9.33-2.97.23-2-2.5.55-1.56,20.76-20.09,23.25-23.5.68-.06,1.61.1,1.75,0Z"/> <path class="cls-14" d="M312.5,424.5c.71,1.34,3.95,4.77,3,6.5-5.93,2.79-12.35,4.59-18,8h-.5c-.45-4.09,11.39-12.04,15.5-14.5Z"/> <path class="cls-24" d="M312.5,424.5c-4.11,2.46-15.95,10.41-15.5,14.5-3.06-.51-7.29,3.43-10.5,4,3.32-4.82,23.18-20.03,23.5-24h.5c.36,1.8,1.16,3.9,2,5.5Z"/> <path class="cls-5" d="M404.5,384.5c0,.82.09,1.7,0,2.5-.22,1.98-.67,3.97-2,5.5-1.15,1.32-13.89,8.92-20.25,7.5-1.04-.23-2.29-1.74-2.75-2-.05-.03.32-1.2-.75-1-13.09,6.16-24.59,15.86-38.5,20-7.96,5.26-16.14,9.95-24.75,14,.95-1.73-2.29-5.16-3-6.5-.84-1.6-1.64-3.7-2-5.5.95.65,1.21,3.02,2.75,3,1.09-.01,15.88-10.04,18.5-11.5,6.39-3.55,13.05-6.6,19.5-10,2.3-1.21,3.69-5.08,7-3,.04-2.72,4.08-6.37,7.5-8.5,1.06-.66,9.64-1.36,3.25-5,1.72-1.03,12.32-6.9,12.75-7.5.65-.9-.28-.95-.25-1.5,4.2-.05,2.96,14.7,6.5,1.75-.54-.95-2.03-5.92-2-6.25,3.26.91,1.45,4.74,4.25,1,3.96,4.37,6-7.26-1.75-5.5.88-1.31,1.73-6.08,7.25-3,5.08,2.83,8.76,15.61,8.75,21.5Z"/> <path class="cls-4" d="M386,370.5c-.03.33,1.46,5.3,2,6.25-3.54,12.95-2.3-1.8-6.5-1.75.02-.44-2.29-6.4,4.5-4.5Z"/> <path class="cls-3" d="M386,370.5c.04-.47,2-3.75,2.5-4.5,7.75-1.76,5.71,9.87,1.75,5.5-2.8,3.74-.99-.09-4.25-1Z"/> <path class="cls-9" d="M387,389.5c-.93,1.87-9.6,6.47-10,5.75,9.16-19.27,3.36-17.21,10-10-.57,1.14-.37,3.16,0,4.25Z"/> <path class="cls-9" d="M387,389.5c.02.05.86-.19,1,.25.42,1.37-.36,1.79-1-.25Z"/> </svg>